<?xml version="1.0" standalone="no"?>
<!DOCTYPE svg PUBLIC "-//W3C//DTD SVG 20010904//EN"
 "http://www.w3.org/TR/2001/REC-SVG-20010904/DTD/svg10.dtd">
<svg version="1.0" xmlns="http://www.w3.org/2000/svg"
 width="128.000000pt" height="128.000000pt" viewBox="0 0 128.000000 128.000000"
 preserveAspectRatio="xMidYMid meet">
<metadata>
Created by potrace 1.14, written by Peter Selinger 2001-2017
</metadata>
<g transform="translate(0.000000,128.000000) scale(0.100000,-0.100000)"
fill="#000000" stroke="none">
<path d="M15 963 c-10 -9 -8 -32 7 -100 10 -48 21 -99 24 -113 3 -14 7 -33 10
-42 3 -10 8 -30 11 -45 3 -16 6 -32 7 -38 2 -5 6 -28 11 -50 9 -46 8 -43 35
-160 27 -122 29 -127 34 -132 7 -7 1063 -5 1084 1 22 7 27 51 8 64 -6 4 -108
8 -227 8 -119 1 -221 4 -227 8 -5 3 -12 20 -15 38 -3 18 -8 44 -11 58 -7 27
-16 73 -22 105 -7 44 -15 81 -21 100 -4 11 -8 25 -9 30 -2 10 -25 123 -29 140
-1 6 -5 21 -8 35 -4 14 -9 38 -12 54 -2 16 -9 34 -15 40 -15 15 -620 15 -635
-1z"/>
</g>
</svg>
